<svg width="24" height="24" viewBox="0 0 24 24" fill="none" xmlns="http://www.w3.org/2000/svg">
<path fill-rule="evenodd" clip-rule="evenodd" d="M6.4004 2.18233C7.36531 2.10529 8.2813 1.72577 9.01795 1.09781C9.84996 0.389183 10.9071 0 12 0C13.0929 0 14.15 0.389183 14.9821 1.09781C15.7187 1.72577 16.6347 2.10529 17.5996 2.18233C18.6893 2.26941 19.7123 2.74178 20.4853 3.51475C21.2582 4.28772 21.7306 5.31074 21.8177 6.4004C21.8942 7.36492 22.2737 8.28144 22.9022 9.01795C23.6108 9.84996 24 10.9071 24 12C24 13.0929 23.6108 14.15 22.9022 14.9821C22.2742 15.7187 21.8947 16.6347 21.8177 17.5996C21.7306 18.6893 21.2582 19.7123 20.4853 20.4853C19.7123 21.2582 18.6893 21.7306 17.5996 21.8177C16.6347 21.8947 15.7187 22.2742 14.9821 22.9022C14.15 23.6108 13.0929 24 12 24C10.9071 24 9.84996 23.6108 9.01795 22.9022C8.2813 22.2742 7.36531 21.8947 6.4004 21.8177C5.31074 21.7306 4.28772 21.2582 3.51475 20.4853C2.74178 19.7123 2.26941 18.6893 2.18233 17.5996C2.10529 16.6347 1.72577 15.7187 1.09781 14.9821C0.389183 14.15 0 13.0929 0 12C0 10.9071 0.389183 9.84996 1.09781 9.01795C1.72577 8.2813 2.10529 7.36531 2.18233 6.4004C2.26941 5.31074 2.74178 4.28772 3.51475 3.51475C4.28772 2.74178 5.31074 2.26941 6.4004 2.18233ZM17.5606 10.0605C17.8338 9.77756 17.985 9.39865 17.9816 9.00535C17.9782 8.61204 17.8204 8.23582 17.5423 7.9577C17.2642 7.67958 16.888 7.52183 16.4947 7.51841C16.1014 7.51499 15.7225 7.66619 15.4396 7.93943L10.5 12.879L8.56044 10.9395C8.27753 10.6662 7.89862 10.515 7.50532 10.5185C7.11202 10.5219 6.73579 10.6796 6.45767 10.9578C6.17956 11.2359 6.0218 11.6121 6.01838 12.0054C6.01497 12.3987 6.16616 12.7776 6.4394 13.0605L9.43946 16.0606C9.72075 16.3418 10.1022 16.4998 10.5 16.4998C10.8977 16.4998 11.2792 16.3418 11.5605 16.0606L17.5606 10.0605Z" fill="#401505"/>
</svg>
