<svg width="48" height="48" viewBox="0 0 48 48" fill="none" xmlns="http://www.w3.org/2000/svg">
<g clip-path="url(#clip0)">
<path d="M24 3.84003L15.4839 14.4" stroke="black" stroke-width="2" stroke-miterlimit="10"/>
<path d="M24 3.84003L32.5161 14.4" stroke="black" stroke-width="2" stroke-miterlimit="10"/>
<path d="M24.0001 7.68C25.7104 7.68 27.0969 5.96077 27.0969 3.84C27.0969 1.71923 25.7104 0 24.0001 0C22.2898 0 20.9033 1.71923 20.9033 3.84C20.9033 5.96077 22.2898 7.68 24.0001 7.68Z" fill="#F5C8B8"/>
<path d="M47.226 42.24C47.226 44.928 45.5228 47.04 43.3551 47.04H4.64538C2.47764 47.04 0.774414 44.928 0.774414 42.24V19.2C0.774414 16.512 2.47764 14.4 4.64538 14.4H43.3551C45.5228 14.4 47.226 16.512 47.226 19.2V42.24Z" fill="white"/>
<path d="M47.226 42.24C47.226 44.928 45.5228 47.04 43.3551 47.04H4.64538C2.47764 47.04 0.774414 44.928 0.774414 42.24V19.2C0.774414 16.512 2.47764 14.4 4.64538 14.4H43.3551C45.5228 14.4 47.226 16.512 47.226 19.2V42.24Z" stroke="black" stroke-width="2" stroke-miterlimit="10"/>
<path d="M13.9355 34.56C13.9355 36.192 12.929 37.44 11.6129 37.44H10.8387C9.52256 37.44 8.51611 36.192 8.51611 34.56V26.88C8.51611 25.248 9.52256 24 10.8387 24H11.6129C12.929 24 13.9355 25.248 13.9355 26.88V34.56Z" stroke="black" stroke-width="2" stroke-miterlimit="10"/>
<path d="M17.0322 38.4V26.88C17.0322 25.248 18.0387 24 19.3548 24H20.129C21.4451 24 22.4516 25.248 22.4516 26.88V29.76C22.4516 31.392 21.4451 32.64 20.129 32.64H17.0322" stroke="black" stroke-width="2" stroke-miterlimit="10"/>
<path d="M31.7419 37.44H27.8709C26.5548 37.44 25.5483 36.192 25.5483 34.56V26.88C25.5483 25.248 26.5548 24 27.8709 24H31.7419" stroke="black" stroke-width="2" stroke-miterlimit="10"/>
<path d="M25.5483 30.72H30.1935" stroke="black" stroke-width="2" stroke-miterlimit="10"/>
<path d="M34.0645 38.4V24L39.4838 37.44V23.04" stroke="black" stroke-width="2" stroke-miterlimit="10" stroke-linejoin="round"/>
<path d="M44.9034 18.24H43.355" stroke="black" stroke-width="2" stroke-miterlimit="10"/>
<path d="M44.9034 43.2H43.355" stroke="black" stroke-width="2" stroke-miterlimit="10"/>
<path d="M4.64556 43.2H3.09717" stroke="black" stroke-width="2" stroke-miterlimit="10"/>
<path d="M4.64556 18.24H3.09717" stroke="black" stroke-width="2" stroke-miterlimit="10"/>
<path d="M41.8067 17.28H6.19385V19.2H41.8067V17.28Z" fill="#F5C8B8"/>
<path d="M44.9034 21.12H43.355V40.32H44.9034V21.12Z" fill="#F5C8B8"/>
<path d="M41.8067 42.24H6.19385V44.16H41.8067V42.24Z" fill="#F5C8B8"/>
<path d="M4.64556 21.12H3.09717V40.32H4.64556V21.12Z" fill="#F5C8B8"/>
<path d="M24.7745 3.84003H23.2261" stroke="black" stroke-width="2" stroke-miterlimit="10"/>
</g>
<defs>
<clipPath id="clip0">
<rect width="48" height="48" fill="white"/>
</clipPath>
</defs>
</svg>
