<svg width="48" height="48" viewBox="0 0 48 48" fill="none" xmlns="http://www.w3.org/2000/svg">
<path d="M23.5 45.2969C35.5381 45.2969 45.2969 35.5381 45.2969 23.5C45.2969 11.4619 35.5381 1.70312 23.5 1.70312C11.4619 1.70312 1.70312 11.4619 1.70312 23.5C1.70312 35.5381 11.4619 45.2969 23.5 45.2969Z" fill="white"/>
<path fill-rule="evenodd" clip-rule="evenodd" d="M23.5 2.40625C11.8502 2.40625 2.40625 11.8502 2.40625 23.5C2.40625 35.1498 11.8502 44.5938 23.5 44.5938C35.1498 44.5938 44.5938 35.1498 44.5938 23.5C44.5938 11.8502 35.1498 2.40625 23.5 2.40625ZM1 23.5C1 11.0736 11.0736 1 23.5 1C35.9264 1 46 11.0736 46 23.5C46 35.9264 35.9264 46 23.5 46C11.0736 46 1 35.9264 1 23.5Z" fill="black"/>
<path fill-rule="evenodd" clip-rule="evenodd" d="M23.5 8.03125C14.9568 8.03125 8.03125 14.9568 8.03125 23.5C8.03125 32.0432 14.9568 38.9688 23.5 38.9688C32.0432 38.9688 38.9688 32.0432 38.9688 23.5C38.9688 14.9568 32.0432 8.03125 23.5 8.03125ZM6.625 23.5C6.625 14.1802 14.1802 6.625 23.5 6.625C32.8198 6.625 40.375 14.1802 40.375 23.5C40.375 32.8198 32.8198 40.375 23.5 40.375C14.1802 40.375 6.625 32.8198 6.625 23.5Z" fill="black"/>
<path d="M41.2812 38.9688C41.2812 40.2459 40.2459 41.2812 38.9688 41.2812C37.6916 41.2812 36.6562 40.2459 36.6562 38.9688C36.6562 37.6916 37.6916 36.6562 38.9688 36.6562C40.2459 36.6562 41.2812 37.6916 41.2812 38.9688Z" fill="#F5C8B8" stroke="black"/>
<path d="M9.64062 23.5C9.64062 24.7772 8.60528 25.8125 7.32812 25.8125C6.05097 25.8125 5.01562 24.7772 5.01562 23.5C5.01562 22.2228 6.05097 21.1875 7.32812 21.1875C8.60528 21.1875 9.64062 22.2228 9.64062 23.5Z" fill="#F5C8B8" stroke="black"/>
<path fill-rule="evenodd" clip-rule="evenodd" d="M23.5 13.6562C18.0634 13.6562 13.6562 18.0634 13.6562 23.5C13.6562 28.9366 18.0634 33.3438 23.5 33.3438C28.9366 33.3438 33.3438 28.9366 33.3438 23.5C33.3438 18.0634 28.9366 13.6562 23.5 13.6562ZM12.25 23.5C12.25 17.2868 17.2868 12.25 23.5 12.25C29.7132 12.25 34.75 17.2868 34.75 23.5C34.75 29.7132 29.7132 34.75 23.5 34.75C17.2868 34.75 12.25 29.7132 12.25 23.5Z" fill="black"/>
<path d="M25.8125 12.9531C25.8125 14.2303 24.7772 15.2656 23.5 15.2656C22.2228 15.2656 21.1875 14.2303 21.1875 12.9531C21.1875 11.676 22.2228 10.6406 23.5 10.6406C24.7772 10.6406 25.8125 11.676 25.8125 12.9531Z" fill="#F5C8B8" stroke="black"/>
<path d="M23.5 27.7188C25.83 27.7188 27.7188 25.83 27.7188 23.5C27.7188 21.17 25.83 19.2812 23.5 19.2812C21.17 19.2812 19.2812 21.17 19.2812 23.5C19.2812 25.83 21.17 27.7188 23.5 27.7188Z" fill="#F5C8B8"/>
</svg>
