<svg width="102" height="65" viewBox="0 0 102 65" fill="none" xmlns="http://www.w3.org/2000/svg">
<path d="M37.6711 64.329H102V0H37.6711V64.329Z" fill="black"/>
<path d="M24.8052 64.329H34.9177V0H24.8052V64.329Z" fill="black"/>
<path d="M12.8657 64.329H17.4588V0H12.8657V64.329Z" fill="black"/>
<path d="M0 64.329H2.75328V0H0V64.329Z" fill="black"/>
<path d="M52.7498 11.6177H53.9206V18.6167C53.9206 19.4015 53.882 20.2764 53.3159 20.8939C53.0457 21.1898 52.6983 21.3699 52.2995 21.4471C52.2737 21.4343 51.2188 20.3664 51.2188 20.3664C51.5404 20.3664 51.862 20.3921 52.1708 20.2635C52.3767 20.1863 52.5311 20.0448 52.6211 19.8389C52.724 19.6331 52.7626 19.1699 52.7626 18.488V11.6177H52.7498Z" fill="white"/>
<path d="M61.7687 12.6084C60.8295 12.6084 60.0704 12.9043 59.4657 13.4833C58.861 14.0751 58.5651 14.8213 58.5651 15.7219C58.5651 16.6097 58.8739 17.343 59.4657 17.922C60.0704 18.5009 60.8295 18.7969 61.7301 18.7969C62.6436 18.7969 63.4026 18.5009 64.0073 17.8963C64.612 17.3044 64.9208 16.5582 64.9208 15.6705C64.9208 14.8085 64.612 14.0751 64.0073 13.4833C63.4155 12.9043 62.6564 12.6084 61.7687 12.6084ZM61.7301 11.502C62.9909 11.502 64.0459 11.9008 64.8822 12.6985C65.7185 13.4962 66.1431 14.4997 66.1431 15.7091C66.1431 16.9185 65.7185 17.9091 64.8693 18.7068C64.0202 19.4916 62.9523 19.8905 61.6658 19.8905C60.4306 19.8905 59.4014 19.4916 58.5908 18.7068C57.7674 17.922 57.3557 16.9313 57.3557 15.7348C57.3557 14.5125 57.7674 13.509 58.5908 12.6985C59.4142 11.8879 60.4692 11.502 61.7301 11.502Z" fill="white"/>
<path d="M75.522 11.6177H76.6928V19.7875H75.522V16.2365H70.736V19.7875H69.5652V11.6177H70.736V15.1815H75.522V11.6177Z" fill="white"/>
<path d="M87.5647 11.6177H88.6711V19.7875H87.6676L81.9552 13.4961V19.7875H80.8616V11.6177H81.8008L87.5647 17.9605V11.6177Z" fill="white"/>
<path d="M47.9507 29.1543V37.3755H52.9941V36.3205H49.1343V29.1543H47.9507Z" fill="white"/>
<path d="M56.9312 29.1543V37.3755H62.2319V36.3205H58.1148V33.7602H62.0131V32.6924H58.1148V30.2093H62.1289V29.1543H56.9312Z" fill="white"/>
<path d="M76.9888 29.1543L74.7502 34.8152L72.4601 29.1543H71.3408L69.0635 34.8152L66.7863 29.1543H65.6155L68.9349 37.4527H69.1664L71.894 30.7239L74.5958 37.4527H74.8274L78.1596 29.1543H76.9888Z" fill="white"/>
<path d="M81.7234 37.3755H82.8942V29.1543H81.7234V37.3755Z" fill="white"/>
<path d="M89.5459 33.9531L88.6453 33.4128C88.0792 33.0654 87.7318 32.7309 87.4745 32.4092C87.2043 32.0747 87.0757 31.6759 87.0757 31.2385C87.0757 30.5952 87.2944 30.0677 87.7447 29.656C88.195 29.2443 88.7868 29.0513 89.5073 29.0513C90.2664 29.0513 90.8196 29.2443 91.3986 29.6302V30.9683C90.8068 30.4022 90.1635 30.1191 89.4816 30.1191C89.0956 30.1191 88.7868 30.2092 88.5295 30.3893C88.2851 30.5694 88.1564 30.801 88.1564 31.0841C88.1564 31.3285 88.2207 31.5344 88.4009 31.7531C88.581 31.9718 88.9026 32.2163 89.3143 32.4607L90.2407 32.9882C91.2442 33.5929 91.7074 34.352 91.7074 35.2783C91.7074 35.9345 91.4758 36.4877 91.0383 36.8865C90.6009 37.2982 90.0348 37.517 89.3272 37.5041C88.5167 37.4912 87.7962 37.2596 87.1143 36.745V35.2526C87.7447 36.0631 88.4909 36.4491 89.3143 36.4491C89.6874 36.4491 89.9962 36.359 90.2407 36.1532C90.4851 35.9473 90.6138 35.69 90.6138 35.3812C90.6395 34.8666 90.2664 34.4034 89.5459 33.9531Z" fill="white"/>
<path d="M48.787 47.3974C48.787 47.5004 48.8256 47.6033 48.9028 47.7319C48.98 47.8606 49.0701 47.9764 49.173 48.0664C49.3274 47.9764 49.4561 47.8735 49.5461 47.7705C49.6362 47.6676 49.6876 47.5518 49.6876 47.4232C49.6876 47.3074 49.649 47.2044 49.559 47.1144C49.4689 47.0372 49.366 46.9986 49.2245 46.9986C49.1087 46.9986 49.0058 47.0372 48.9157 47.1015C48.8256 47.1916 48.787 47.2816 48.787 47.3974ZM48.2595 49.7004C48.2595 49.8419 48.311 49.9577 48.4268 50.0606C48.5426 50.1636 48.6712 50.2022 48.8128 50.2022C49.0701 50.2022 49.3403 50.0735 49.6233 49.8291L48.8642 48.9671C48.6712 49.0828 48.5297 49.1986 48.4268 49.3144C48.311 49.4431 48.2595 49.5589 48.2595 49.7004ZM49.2373 46.3682C49.5719 46.3682 49.8678 46.4582 50.0865 46.6512C50.3181 46.8442 50.421 47.0886 50.421 47.3846C50.421 47.6033 50.3567 47.7963 50.2151 47.9893C50.0865 48.1822 49.8678 48.3624 49.5976 48.5425L50.2151 49.2501C50.3953 49.07 50.5625 48.8384 50.7169 48.5425H51.5275C51.3216 49.0571 51.0386 49.4688 50.7169 49.8033L51.6175 50.8197H50.5111L50.0993 50.3566C49.8678 50.5495 49.6619 50.6782 49.4432 50.7554C49.2373 50.8326 48.98 50.8841 48.697 50.8841C48.3367 50.8841 48.0408 50.7811 47.7835 50.5624C47.5391 50.3437 47.4104 50.0735 47.4104 49.7647C47.4104 49.5074 47.5005 49.263 47.6806 49.0571C47.8607 48.8513 48.1052 48.6583 48.4397 48.4782C48.2853 48.2852 48.1695 48.105 48.1052 47.9507C48.028 47.7963 48.0022 47.629 48.0022 47.4618C48.0022 47.1401 48.118 46.8699 48.3625 46.6641C48.5683 46.4711 48.8771 46.3682 49.2373 46.3682Z" fill="white"/>
<path d="M56.1076 48.2723C56.3392 48.2723 56.5193 48.2208 56.648 48.1179C56.7766 48.015 56.8409 47.8606 56.8409 47.6547C56.8409 47.243 56.5836 47.0372 56.0561 47.0372H55.4643V48.2723H56.1076ZM56.3263 46.3682C56.738 46.3682 57.0854 46.484 57.3427 46.7284C57.6 46.9729 57.7287 47.2816 57.7287 47.6547C57.7287 48.0407 57.6 48.3495 57.3298 48.5939C57.0725 48.8384 56.7123 48.9542 56.2877 48.9542H55.4643V50.8197H54.6023V46.3682H56.3263Z" fill="white"/>
<path d="M59.9031 49.0828H61.344L60.5978 47.3202L59.9031 49.0828ZM61.0352 46.3682L63.0037 50.8197H62.0902L61.6271 49.739H59.6457L59.2212 50.8197H58.3206L60.1604 46.3682H61.0352Z" fill="white"/>
<path d="M65.5511 48.2594C65.7826 48.2594 65.9499 48.208 66.0786 48.0922C66.2072 47.9764 66.2715 47.822 66.2715 47.629C66.2715 47.4232 66.2072 47.2688 66.0786 47.1658C65.9499 47.0629 65.7698 47.0115 65.5382 47.0115H64.9978V48.2466H65.5511V48.2594ZM65.744 46.3682C66.1686 46.3682 66.5031 46.484 66.7733 46.7155C67.0306 46.9471 67.1721 47.243 67.1721 47.6161C67.1721 47.8735 67.1078 48.0922 66.9792 48.2723C66.8505 48.4653 66.6575 48.6068 66.4002 48.7097C66.5417 48.7869 66.6704 48.8899 66.7862 49.0185C66.902 49.1472 67.0306 49.3788 67.1979 49.6875C67.4681 50.2279 67.6739 50.601 67.8026 50.8069H66.8376C66.7733 50.7039 66.6832 50.5495 66.5674 50.3437C66.323 49.8677 66.1429 49.546 66.0271 49.3916C65.9113 49.2244 65.8084 49.1086 65.6926 49.0443C65.5897 48.9799 65.461 48.9413 65.3195 48.9413H65.0107V50.8197H64.1487V46.3682H65.744Z" fill="white"/>
<path d="M72.4857 46.3682V47.0372H70.9032V50.8197H70.0412V47.0372H68.4587V46.3682H72.4857Z" fill="white"/>
<path d="M74.6473 46.3682L77.2976 49.4688V46.3682H78.1339V50.8197H77.4005L74.7373 47.6547V50.8197H73.8882V46.3682H74.6473Z" fill="white"/>
<path d="M82.817 46.3682V47.0372H80.7971V48.208H82.7269V48.877H80.7971V50.1507H82.8556V50.8197H79.9351V46.3682H82.817Z" fill="white"/>
<path d="M85.9306 48.2594C86.1493 48.2594 86.3295 48.208 86.4581 48.0922C86.5868 47.9764 86.6511 47.822 86.6511 47.629C86.6511 47.4232 86.5868 47.2688 86.4581 47.1658C86.3295 47.0629 86.1493 47.0115 85.9178 47.0115H85.3774V48.2466H85.9306V48.2594ZM86.1236 46.3682C86.5482 46.3682 86.8827 46.484 87.1529 46.7155C87.4102 46.9471 87.5517 47.243 87.5517 47.6161C87.5517 47.8735 87.4874 48.0922 87.3587 48.2723C87.2301 48.4653 87.0371 48.6068 86.7798 48.7097C86.9213 48.7869 87.0499 48.8899 87.1529 49.0185C87.2687 49.1472 87.3973 49.3788 87.5646 49.6875C87.8348 50.2279 88.0406 50.601 88.1693 50.8069H87.2043C87.14 50.7039 87.0499 50.5495 86.9341 50.3437C86.6897 49.8677 86.5096 49.546 86.3938 49.3916C86.278 49.2244 86.1622 49.1086 86.0593 49.0443C85.9563 48.9799 85.8277 48.9413 85.699 48.9413H85.3903V50.8197H84.5154V46.3682H86.1236Z" fill="white"/>
<path d="M90.7424 46.3042C91.1799 46.3042 91.5916 46.4071 91.9904 46.6258V47.3849C91.5272 47.1019 91.1155 46.9604 90.7682 46.9604C90.5494 46.9604 90.3822 46.999 90.2664 47.089C90.1377 47.1791 90.0863 47.282 90.0863 47.4235C90.0863 47.5908 90.2021 47.7452 90.4208 47.8867C90.4851 47.9253 90.7296 48.0539 91.1541 48.2469C91.5144 48.4142 91.7846 48.6072 91.9518 48.8259C92.1191 49.0317 92.1963 49.2891 92.1963 49.585C92.1963 49.9709 92.0547 50.2797 91.7846 50.5113C91.5144 50.7429 91.1541 50.8587 90.7167 50.8587C90.4337 50.8587 90.1892 50.833 89.9834 50.7686C89.7775 50.7043 89.5459 50.6014 89.2886 50.447V49.5978C89.7646 49.9967 90.2149 50.1897 90.6395 50.1897C90.8454 50.1897 91.0255 50.1382 91.1541 50.0481C91.2828 49.9581 91.3471 49.8294 91.3471 49.6879C91.3471 49.4821 91.2313 49.3148 91.0126 49.1861C90.8196 49.0832 90.588 48.9674 90.2921 48.813C89.9448 48.6586 89.6746 48.4657 89.5073 48.2598C89.3401 48.0539 89.25 47.7966 89.25 47.5264C89.25 47.1533 89.3915 46.8574 89.6617 46.6258C89.919 46.42 90.2921 46.3042 90.7424 46.3042Z" fill="white"/>
</svg>
