<?xml version="1.0" encoding="utf-8" standalone="no"?>
<svg xmlns="http://www.w3.org/2000/svg" version="1.1" x="0" y="0" viewBox="-127 327 312.1 101.1" xml:space="preserve">
  <style type="text/css">
	.st0{fill:#DF4B12;}
	.st1{fill:#003671;}
</style>
  <path class="st0" d="M-113.3 380.9v0.5c0 2.8 2.2 4.7 5.4 4.7 3.1 0 5-1.6 5-4.4 0-4.1-4-3.9-10.2-5.8 -8.6-2.7-12.8-7.3-12.8-14.8 0-9.7 7.1-16.6 19-16.6 10.3 0 16.9 5.8 17.4 15.3h-13.2c-0.6-3.2-1.8-4.6-4.4-4.6 -2.9 0-4.5 1.7-4.5 4.1 0 3.4 3.1 4.3 8.2 5.6 10.2 2.8 15.3 6.7 15.3 14.9 0 10-7.9 17.2-19.9 17.2 -11.1 0-18-6-19-16.1L-113.3 380.9 -113.3 380.9z" />
  <polygon class="st0" points="-44.4 395.8 -52.7 366.6 -61.1 395.8 -74.5 395.8 -89.5 346 -74.6 346 -67.1 375.6 -59.1 346 -46.4 346 -38.3 375.6 -30.7 346 -15.8 346 -30.8 395.8 " />
  <rect x="-13.1" y="346" class="st0" width="14.5" height="49.7" />
  <path class="st0" d="M6.1 395.8v-49.7H20l-0.2 6.7c3.1-5 7.7-7.6 14.3-7.6 10.3 0 16.9 6.5 16.9 17.9v32.7H36.4v-27c0-6.9-1.5-10.1-7.1-10.1 -5.7 0-8.8 3.4-8.8 10.1v27H6.1zM140.1 395.8v-49.7H154l-0.2 6.7c3.1-5 7.7-7.6 14.3-7.6 10.3 0 17 6.5 17 17.9v32.7h-14.6v-27c0-6.9-1.5-10.1-7.1-10.1 -5.7 0-8.8 3.4-8.8 10.1v27H140.1zM128.1 352.2c-5-4.7-11.2-7.2-18.4-7.2 -6.8 0-13.3 2.8-18.3 7.8 -4.9 4.9-7.6 11.3-7.6 18.2 0 6.4 2.1 12.3 6.2 17.1 -1.7 0.7-4.1 1.3-5.2 1.4 -1.4 0.1-2.3 0.1-3.3 0 -2.4-0.4-4.2-1.1-5.2-2.1 -1.1-1-1.6-2.7-1.6-4.8V357h6.6v-10.9h-6.6V330H59.9v16.1h-6.4V357h6.2v10.9 17.4c0 4.3 1.7 7.4 4.9 9.3 3.3 1.8 7.5 2.7 12.8 2.7 5.2 0 11.1-1.6 16.4-5.5 4.5 3.7 9.8 5.5 16.1 5.5 7.5 0 13.8-2.7 18.9-7.8 5-5 7.5-11.2 7.5-18.7C136.2 364 133.3 357.2 128.1 352.2zM109.9 383.4c-6.4 0-11.8-5.5-11.8-12.2 0-6.9 5.3-12.3 11.8-12.3s11.8 5.5 11.8 12.3C121.7 377.9 116.4 383.4 109.9 383.4z" />
  <rect x="-13.1" y="327" class="st1" width="14.5" height="14.5" />
  <rect x="-13.1" y="404.3" class="st1" width="7" height="23.9" />
  <path class="st1" d="M-3 428.1v-23.9h6.7l-0.1 3.2c1.5-2.4 3.7-3.6 6.8-3.6 4.9 0 8.1 3.1 8.1 8.6v15.7h-7v-12.9c0-3.3-0.7-4.9-3.4-4.9 -2.8 0-4.2 1.7-4.2 4.9v12.9L-3 428.1 -3 428.1zM27.6 421v0.2c0 1.3 1.1 2.3 2.6 2.3s2.4-0.8 2.4-2.1c0-2-1.9-1.9-4.9-2.8 -4.1-1.3-6.1-3.5-6.1-7.1 0-4.7 3.4-8 9.1-8 4.9 0 8.1 2.8 8.4 7.3h-6.4c-0.3-1.6-0.8-2.2-2.1-2.2 -1.4 0-2.2 0.8-2.2 2 0 1.6 1.5 2 3.9 2.7 4.9 1.3 7.3 3.2 7.3 7.2 0 4.8-3.8 8.3-9.6 8.3 -5.3 0-8.6-2.9-9.1-7.7L27.6 421 27.6 421zM64 404.3v23.9h-6.5V425c-1.5 2.5-3.8 3.6-6.8 3.6 -4.9 0-8.2-3.1-8.2-8.6v-15.7h7.1v12.9c0 3.3 0.7 4.8 3.4 4.8 2.8 0 4.2-1.6 4.2-4.8v-12.9L64 404.3 64 404.3zM73.8 404.3v3.2c1.2-2.4 3.2-3.6 6-3.6v6.5h-0.2c-4.4 0-5.4 1.5-5.4 5.9v11.8h-7.1v-23.9h6.7V404.3zM99.6 425.5c-2.1 2-4.2 2.8-7.1 2.8s-5.4-0.9-7.5-2.8c-2.8-2.4-4.2-5.6-4.2-9.4 0-3.4 1.3-6.5 3.8-8.9 2.2-2.2 4.9-3.3 8-3.3 2.9 0 5.1 1 6.7 3v-2.7h7v23.9h-6.8v-2.6H99.6zM94.1 421.9c3 0 5.6-2.5 5.6-5.8 0-3.4-2.5-6-5.8-6S88 412.8 88 416C87.9 419.4 90.5 421.9 94.1 421.9M109.4 428.1v-23.9h6.7l-0.1 3.2c1.5-2.4 3.7-3.6 6.8-3.6 4.9 0 8.1 3.1 8.1 8.6v15.7h-7v-12.9c0-3.3-0.7-4.9-3.4-4.9 -2.8 0-4.2 1.7-4.2 4.9v12.9L109.4 428.1 109.4 428.1zM157.9 419.6c-1.8 5.7-6.4 9.2-12.2 9.2 -3.6 0-6.6-1.2-9-3.8 -2.3-2.4-3.5-5.6-3.5-8.9s1.3-6.4 3.6-8.8c2.4-2.5 5.4-3.7 8.8-3.7 6 0 10.4 3.3 12.3 9.3h-7.4c-1-1.6-2.6-2.5-4.9-2.5 -3.2 0-5.5 2.4-5.5 5.7 0 3.6 2.3 5.9 5.7 5.9 1.9 0 3.5-0.8 4.6-2.4L157.9 419.6 157.9 419.6zM183.8 421.2c-2.3 5-6.3 7.5-11.6 7.5 -3.7 0-6.6-1.2-9-3.8 -2.3-2.4-3.5-5.5-3.5-8.9 0-3.3 1.3-6.4 3.6-8.8 2.4-2.4 5.6-3.7 8.8-3.7 7.6 0 12.8 5.5 12.8 14.4v0.8h-18c0.6 2.5 2.4 3.9 5.5 3.9 1.4 0 2.6-0.4 3.6-1.3h7.8L183.8 421.2 183.8 421.2zM177.8 413.7c-0.8-2.4-2.8-3.8-5.6-3.8 -2.9 0-5 1.5-5.5 3.8H177.8z" />
</svg>