<svg width="170" height="30" viewBox="0 0 170 30" fill="none" xmlns="http://www.w3.org/2000/svg">
<title>Geolytix</title>
<path fill-rule="evenodd" clip-rule="evenodd" d="M14.69 3L15.39 3.01L16.07 3.05L16.73 3.12L17.36 3.22L17.98 3.34L18.57 3.49L19.14 3.67L19.69 3.87L20.22 4.1L20.72 4.35L21.21 4.62L21.68 4.91L22.13 5.22L22.56 5.55L22.97 5.91L23.36 6.28L18.83 10.75L18.62 10.56L18.4 10.37L18.18 10.2L17.94 10.04L17.7 9.88L17.45 9.74L17.19 9.61L16.92 9.48L16.64 9.37L16.35 9.27L16.04 9.19L15.72 9.13L15.39 9.07L15.04 9.04L14.68 9.02L14.3 9.01L13.99 9.02L13.69 9.04L13.39 9.07L13.1 9.12L12.82 9.19L12.54 9.27L12.27 9.36L12 9.47L11.74 9.59L11.5 9.72L11.26 9.86L11.02 10.02L10.8 10.18L10.59 10.36L10.39 10.55L10.19 10.75L10.01 10.96L9.83 11.19L9.67 11.42L9.51 11.66L9.37 11.92L9.24 12.18L9.12 12.46L9.01 12.74L8.91 13.03L8.82 13.34L8.75 13.64L8.69 13.96L8.64 14.28L8.61 14.61L8.59 14.95L8.58 15.29L8.59 15.69L8.61 16.08L8.65 16.45L8.7 16.81L8.77 17.16L8.85 17.49L8.95 17.82L9.06 18.12L9.19 18.42L9.33 18.7L9.47 18.98L9.63 19.23L9.8 19.48L9.97 19.71L10.16 19.93L10.36 20.14L10.57 20.33L10.78 20.52L11 20.69L11.23 20.84L11.47 20.99L11.71 21.12L11.96 21.24L12.22 21.35L12.49 21.45L12.75 21.53L13.02 21.6L13.29 21.65L13.57 21.7L13.84 21.73L14.12 21.75L14.41 21.76L14.95 21.74L15.47 21.7L15.96 21.63L16.42 21.54L16.85 21.42L17.25 21.27L17.62 21.09L17.96 20.88L18.28 20.65L18.56 20.39L18.83 20.11L19.07 19.79L19.28 19.45L19.47 19.09L19.63 18.69L19.77 18.27H14.22V13.56H26L26.04 13.84L26.07 14.11L26.1 14.39L26.11 14.65L26.14 15.7L26.11 16.66L26.07 17.13L26.02 17.59L25.96 18.04L25.88 18.48L25.79 18.9L25.68 19.32L25.56 19.72L25.43 20.12L25.29 20.5L25.14 20.88L24.97 21.25L24.8 21.6L24.61 21.95L24.41 22.28L24.2 22.61L23.99 22.92L23.76 23.23L23.53 23.52L23.29 23.8L23.04 24.08L22.78 24.34L22.51 24.59L22.23 24.83L21.95 25.07L21.66 25.29L21.37 25.5L21.07 25.7L20.76 25.89L20.45 26.07L20.14 26.24L19.49 26.55L18.83 26.82L18.16 27.05L17.47 27.23L16.78 27.38L16.08 27.48L15.39 27.54L14.69 27.56L14 27.55L13.33 27.51L12.66 27.44L12.01 27.34L11.38 27.21L10.76 27.05L10.16 26.87L9.56 26.66L8.99 26.42L8.44 26.16L7.9 25.88L7.39 25.57L6.9 25.24L6.43 24.89L5.98 24.52L5.55 24.13L5.14 23.71L4.76 23.27L4.4 22.82L4.06 22.34L3.74 21.85L3.45 21.33L3.18 20.8L2.94 20.24L2.72 19.67L2.53 19.08L2.36 18.49L2.23 17.87L2.13 17.25L2.06 16.61L2.01 15.96L2 15.29L2.02 14.4L2.06 13.97L2.1 13.54L2.16 13.12L2.23 12.7L2.32 12.28L2.42 11.88L2.53 11.48L2.65 11.09L2.79 10.7L2.93 10.32L3.09 9.96L3.26 9.6L3.44 9.24L3.63 8.9L3.83 8.56L4.05 8.23L4.27 7.91L4.5 7.6L4.75 7.3L5.01 7.01L5.27 6.72L5.55 6.44L5.84 6.18L6.14 5.92L6.44 5.67L6.75 5.43L7.08 5.2L7.41 4.99L7.74 4.78L8.09 4.58L8.45 4.39L8.81 4.22L9.18 4.05L9.56 3.9L9.95 3.76L10.35 3.63L11.16 3.4L11.58 3.31L12.01 3.23L12.88 3.1L13.78 3.02L14.69 3Z" fill="currentColor"/>
<path fill-rule="evenodd" clip-rule="evenodd" d="M47.1799 27.14H28.6599V3.44H47.1799V9.16H35.0999V12.29H46.3399V18.01H35.0999V21.42H47.1799V27.14Z" fill="currentColor"/>
<path fill-rule="evenodd" clip-rule="evenodd" d="M61.51 3L62.19 3.01L62.86 3.06L63.51 3.13L64.15 3.23L64.77 3.36L65.38 3.52L65.98 3.7L66.56 3.92L67.13 4.16L67.67 4.43L68.2 4.71L68.7 5.02L69.19 5.35L69.66 5.71L70.1 6.09L70.53 6.49L70.94 6.91L71.32 7.34L71.68 7.8L72.01 8.28L72.32 8.78L72.61 9.29L72.88 9.83L73.12 10.38L73.34 10.95L73.52 11.53L73.68 12.13L73.81 12.73L73.91 13.35L73.99 13.99L74.03 14.63L74.04 15.29L74.03 15.95L73.99 16.59L73.91 17.23L73.81 17.85L73.68 18.45L73.52 19.05L73.34 19.63L73.12 20.2L72.88 20.75L72.61 21.29L72.32 21.8L72.01 22.3L71.68 22.78L71.32 23.23L70.94 23.67L70.53 24.09L70.1 24.49L69.66 24.87L69.19 25.22L68.7 25.56L68.2 25.86L67.67 26.15L67.13 26.42L66.56 26.66L65.98 26.87L65.38 27.06L64.77 27.22L64.15 27.35L63.51 27.45L62.86 27.52L62.19 27.57L61.51 27.58L60.84 27.57L60.17 27.52L59.52 27.45L58.88 27.35L58.26 27.22L57.65 27.06L57.05 26.87L56.47 26.66L55.9 26.42L55.36 26.15L54.83 25.86L54.33 25.56L53.84 25.22L53.37 24.87L52.93 24.49L52.5 24.09L52.09 23.67L51.71 23.23L51.35 22.78L51.02 22.3L50.71 21.8L50.42 21.29L50.15 20.75L49.91 20.2L49.69 19.63L49.51 19.05L49.35 18.45L49.22 17.85L49.12 17.23L49.04 16.59L49 15.95L48.99 15.29L49 14.63L49.04 13.99L49.12 13.35L49.22 12.73L49.35 12.13L49.51 11.53L49.69 10.95L49.91 10.38L50.15 9.83L50.42 9.29L50.71 8.78L51.02 8.28L51.35 7.8L51.71 7.34L52.09 6.91L52.5 6.49L52.93 6.09L53.37 5.71L53.84 5.35L54.33 5.02L54.83 4.71L55.36 4.43L55.9 4.16L56.47 3.92L57.05 3.7L57.65 3.52L58.26 3.36L58.88 3.23L59.52 3.13L60.17 3.06L60.84 3.01L61.51 3ZM61.51 9.16L61.19 9.17L60.88 9.19L60.57 9.22L60.27 9.27L59.98 9.34L59.69 9.41L59.41 9.5L59.14 9.61L58.88 9.73L58.63 9.86L58.39 10L58.15 10.15L57.92 10.31L57.71 10.49L57.5 10.67L57.3 10.87L57.11 11.08L56.93 11.3L56.77 11.52L56.61 11.76L56.46 12.01L56.33 12.27L56.21 12.53L56.1 12.81L56 13.09L55.91 13.39L55.84 13.69L55.78 13.99L55.73 14.31L55.7 14.63L55.68 14.95L55.67 15.29L55.68 15.62L55.7 15.95L55.73 16.27L55.78 16.59L55.84 16.89L55.91 17.19L56 17.48L56.1 17.77L56.21 18.05L56.33 18.31L56.46 18.57L56.61 18.82L56.77 19.05L56.93 19.28L57.11 19.5L57.3 19.71L57.5 19.91L57.71 20.09L57.92 20.27L58.15 20.43L58.39 20.58L58.63 20.72L58.88 20.85L59.14 20.97L59.41 21.07L59.69 21.17L59.98 21.24L60.27 21.31L60.57 21.35L60.88 21.39L61.19 21.41L61.51 21.42L61.83 21.41L62.14 21.39L62.45 21.35L62.75 21.31L63.04 21.24L63.33 21.17L63.6 21.07L63.88 20.97L64.14 20.85L64.4 20.72L64.64 20.58L64.88 20.43L65.1 20.27L65.32 20.09L65.53 19.91L65.73 19.71L65.92 19.5L66.1 19.28L66.26 19.05L66.42 18.82L66.56 18.57L66.7 18.31L66.82 18.05L66.93 17.77L67.03 17.48L67.12 17.19L67.19 16.89L67.25 16.59L67.3 16.27L67.33 15.95L67.35 15.62L67.36 15.29L67.35 14.95L67.33 14.63L67.3 14.31L67.25 13.99L67.19 13.69L67.12 13.39L67.03 13.09L66.93 12.81L66.82 12.53L66.7 12.27L66.56 12.01L66.42 11.76L66.26 11.52L66.1 11.3L65.92 11.08L65.73 10.87L65.53 10.67L65.32 10.49L65.1 10.31L64.88 10.15L64.64 10L64.4 9.86L64.14 9.73L63.88 9.61L63.6 9.5L63.33 9.41L63.04 9.34L62.75 9.27L62.45 9.22L62.14 9.19L61.83 9.17L61.51 9.16Z" fill="currentColor"/>
<path fill-rule="evenodd" clip-rule="evenodd" d="M94.4301 27.14H76.5801V3.44H83.0201V21.21H94.4301V27.14Z" fill="currentColor"/>
<path fill-rule="evenodd" clip-rule="evenodd" d="M106.14 18.17V27.14H99.7V18.25L90.76 3.44H98.15L102.94 12.39L107.71 3.44H114.87L106.14 18.17Z" fill="currentColor"/>
<path fill-rule="evenodd" clip-rule="evenodd" d="M135.32 9.36H128.58V27.14H122.15V9.36H115.41V3.44H135.32V9.36Z" fill="currentColor"/>
<path fill-rule="evenodd" clip-rule="evenodd" d="M143.77 27.14H137.33V3.44H143.77V27.14Z" fill="currentColor"/>
<path fill-rule="evenodd" clip-rule="evenodd" d="M160.83 15.2L168.33 27.14H161.05L156.9 20.11L152.77 27.14H145.54L153.04 15.22L145.54 3.44H152.82L156.97 10.45L161.1 3.44H168.33L160.83 15.2Z" fill="currentColor"/>
</svg>
